<svg xmlns="http://www.w3.org/2000/svg" viewBox="0 0 903.83 679.93">
  <defs>
    <style>
      .cls-1 {
        fill: #bf3c1f;
      }

      .cls-2 {
        fill: none;
        stroke: #bf3c1f;
        stroke-miterlimit: 10;
      }
    </style>
  </defs>
  <g id="shape">
    <g id="_shape_" data-name="&lt;shape&gt;">
      <path class="cls-1" d="M869.19,700.05a445.39,445.39,0,0,1-52.63-3c-2.41-.28-59.64-7.3-120.76-30.17-34.3-12.84-63-28.17-85.38-45.57-27.72-21.57-45.7-46.43-53.44-73.9-8.37-29.69-1.34-49.1,6.11-69.66,7.11-19.65,14.47-40,7.9-70.31-14.33-66.13-77.2-100.61-132.67-131-47.08-25.83-87.74-48.13-88.32-83.87-.46-28.61,24.7-53.68,45.88-69.68C421.35,103.58,456,86.45,488.64,77A210.38,210.38,0,0,1,548,68.16c42,0,79,13.82,118.19,28.46,48.95,18.29,104.44,39,183.14,39,7.93,0,16.06-.21,24.19-.63,45.54-2.35,79.8-10.41,107.33-16.89,19-4.47,34-8,46.23-8,11.86,0,20.2,3.31,27,10.73,11.52,12.49,14.07,32.32,7.81,60.63-5.62,25.41-17.7,55.3-29.39,84.2-24.29,60.09-49.41,122.23-21.42,153.16,10,11.08,25.38,16.46,46.95,16.46h0c17.37,0,36.75-3.36,55.5-6.61,18.23-3.16,35.45-6.15,50.45-6.15,18.32,0,30.1,4.53,37.06,14.26,11.44,16,7.76,44.47-10.35,80.26-16.2,32-42.58,66.79-70.58,93.09-36.18,34-80.5,58.74-131.71,73.62C951.27,694.57,911.14,700.05,869.19,700.05Z" transform="translate(-304.31 -55.6)"/>
      <path class="cls-1" d="M548,68.66c41.88,0,78.86,13.81,118,28.43,49,18.3,104.52,39,183.31,39,7.94,0,16.08-.21,24.21-.63,45.59-2.35,79.87-10.42,107.42-16.9,19-4.47,33.94-8,46.12-8,11.71,0,19.93,3.26,26.67,10.57,11.4,12.36,13.92,32,7.69,60.19-5.61,25.36-17.68,55.23-29.36,84.12-24.35,60.23-49.53,122.51-21.33,153.68,10.12,11.19,25.6,16.62,47.32,16.62,17.41,0,36.81-3.36,55.58-6.62C1131.87,426,1149.07,423,1164,423c18.15,0,29.79,4.47,36.66,14.05,11.32,15.81,7.62,44.13-10.4,79.75-16.17,31.94-42.51,66.69-70.47,92.94-36.13,33.92-80.37,58.65-131.51,73.51-37.14,10.8-77.22,16.27-119.12,16.27a446.66,446.66,0,0,1-52.57-3A579.09,579.09,0,0,1,696,666.36c-34.26-12.82-62.94-28.12-85.26-45.49-27.63-21.51-45.55-46.28-53.26-73.64-8.32-29.54-1.32-48.88,6.1-69.36,7.14-19.71,14.52-40.1,7.92-70.58-14.38-66.36-77.35-100.9-132.91-131.37-46.95-25.75-87.5-48-88.07-83.44-.46-28.39,24.59-53.34,45.69-69.27,25.42-19.2,60-36.3,92.59-45.75A210.11,210.11,0,0,1,548,68.66m0-1A211.3,211.3,0,0,0,488.5,76.5c-61.64,17.89-139.81,65.88-139,116,1.26,78.39,194.58,93.05,221,215,13.3,61.38-30.56,81.24-14,140,34,120.61,250.34,148.85,260,150a444.65,444.65,0,0,0,52.69,3c64.89,0,169.75-13.47,251.31-90,55.23-51.86,106.25-138.73,81-174C1193.69,425.6,1180.33,422,1164,422c-30.82,0-72.1,12.76-106,12.76-18.86,0-35.42-4-46.58-16.29-54.88-60.65,95.5-241.07,43-298-7.31-7.93-16.19-10.89-27.41-10.89-29.81,0-76.14,20.89-153.59,24.89-8.31.43-16.33.63-24.16.63-142.43,0-207.46-67.47-301.33-67.47Z" transform="translate(-304.31 -55.6)"/>
    </g>
  </g>
  <g id="outline">
    <g id="_outline_" data-name="&lt;outline&gt;">
      <path class="cls-1" d="M506.42,56.6a157.09,157.09,0,0,1,66.63,14.7c19.36,8.85,37,21,54,32.65,35.63,24.48,72.48,49.8,129.53,49.8,3.28,0,6.64-.08,10-.25,59.94-3,109.68-31.1,153.57-55.91,34.27-19.37,63.86-36.1,90.5-36.1A54.67,54.67,0,0,1,1041,70.34a69.5,69.5,0,0,1,21.86,23.37c29.83,51.63-15.26,124-55,187.82-32.36,51.92-60.3,96.76-43.09,121.54,6.63,9.55,18.86,14.19,37.37,14.19,18.29,0,40.32-4.3,63.64-8.86,24.12-4.71,49.07-9.58,70.43-9.58,22.75,0,38.32,5.66,47.6,17.3,7.21,9.05,10.45,21.51,9.63,37-.71,13.66-4.55,29.69-11.4,47.66-10.83,28.42-29.62,62.09-50.25,90.09a356.26,356.26,0,0,1-77.55,77.37,347.14,347.14,0,0,1-79.84,43.13c-52.84,20.2-97.9,22.88-114.82,23.09-1.88,0-3.79,0-5.69,0-71.85,0-148.37-16.94-209.92-46.46-32.35-15.51-59.22-33.78-79.86-54.29-22.19-22.06-36.51-46.12-42.55-71.52-7.47-31.43.68-53.06,8.57-74,8.07-21.39,16.41-43.51,8.43-76C522.18,345.89,457.78,314.47,401,286.75c-24.5-12-47.65-23.25-65-36.38-19.32-14.58-29-29.5-30.42-47-1.19-14.46,3.3-30.14,13.36-46.61,9.49-15.53,23.79-31.19,41.35-45.29A262.79,262.79,0,0,1,420,75.74c23-9.9,46.07-16,68.59-18.24,6-.6,12-.9,17.82-.9m0-1q-8.61,0-17.92.9c-93.48,9.15-189,86.5-184,147,6.9,83.88,202.86,86.2,233,209,15.74,64.15-32.16,86.24-17,150,25.34,106.58,191.4,173,333.3,173,1.9,0,3.81,0,5.7,0,39.5-.5,176.62-13.25,273-144,33.62-45.61,83.41-136.59,52-176-10.55-13.24-27.89-17.68-48.38-17.68-41.77,0-96.66,18.44-134.07,18.44-16.41,0-29.46-3.55-36.55-13.76C927.59,347.93,1117.9,187,1063.69,93.21A70.61,70.61,0,0,0,1041.5,69.5a55.74,55.74,0,0,0-30.89-9c-60.92,0-137.21,86.69-244.11,92-3.38.17-6.7.25-9.94.25C644.69,152.75,612,55.6,506.42,55.6Z" transform="translate(-304.31 -55.6)"/>
    </g>
    <path id="_outline-shape_" data-name="&lt;outline-shape&gt;" class="cls-2" d="M1385.5-101.5" transform="translate(-304.31 -55.6)"/>
  </g>
</svg>
